<?xml version="1.0" standalone="no"?>
<!DOCTYPE svg PUBLIC "-//W3C//DTD SVG 20010904//EN"
 "http://www.w3.org/TR/2001/REC-SVG-20010904/DTD/svg10.dtd">
<svg version="1.0" xmlns="http://www.w3.org/2000/svg"
 width="1024.000000pt" height="1024.000000pt" viewBox="0 0 1024.000000 1024.000000"
 preserveAspectRatio="xMidYMid meet">

<g transform="translate(0.000000,1024.000000) scale(0.100000,-0.100000)"
fill="#000000" stroke="none">
<path d="M1990 6614 c-310 -34 -532 -126 -750 -310 -200 -168 -336 -390 -406
-659 -27 -103 -29 -123 -29 -305 0 -179 3 -204 28 -303 62 -248 162 -427 339
-604 188 -190 422 -312 682 -358 190 -33 441 -14 621 47 434 147 747 497 846
948 31 138 33 389 5 520 -99 459 -424 824 -861 965 -133 43 -362 72 -475 59z
m256 -105 c369 -51 708 -293 878 -625 149 -293 171 -646 60 -956 -231 -643
-977 -957 -1600 -673 -244 111 -464 329 -578 570 -201 423 -131 941 173 1288
180 205 431 347 692 391 103 17 272 20 375 5z"/>
<path d="M2252 5935 c-42 -55 -124 -162 -184 -237 l-109 -138 -68 83 c-36 45
-122 151 -189 235 l-123 152 -114 0 -115 0 0 -700 0 -700 94 0 c51 0 108 3
125 6 l31 7 0 484 0 484 62 -78 c34 -43 103 -125 153 -183 49 -58 101 -119
115 -136 l26 -31 194 234 c174 209 197 233 224 233 81 0 184 -92 244 -218 36
-74 37 -81 37 -187 0 -125 -13 -176 -71 -271 -20 -33 -37 -64 -38 -71 -3 -16
-13 -26 -31 -29 -7 -1 -29 -13 -47 -27 -70 -54 -125 -71 -233 -71 -92 -1 -105
1 -168 31 -37 18 -91 55 -120 82 l-53 50 -2 -83 c-1 -80 0 -85 28 -109 15 -14
32 -22 36 -19 4 4 4 1 -1 -6 -5 -10 -16 -6 -42 20 l-34 33 2 97 c2 54 0 101
-4 105 -4 3 -7 -43 -7 -103 l0 -110 33 -31 c95 -92 240 -147 387 -147 295 0
538 208 596 508 47 241 -58 467 -267 576 -100 52 -141 88 -170 147 -25 53 -31
152 -11 190 11 21 10 21 -50 25 l-61 3 -75 -100z m-632 27 c135 -175 334 -410
344 -406 12 6 147 174 279 349 l83 110 50 3 50 3 -9 -58 c-17 -106 31 -205
131 -268 31 -19 50 -35 41 -35 -8 0 -20 5 -26 11 -8 8 -13 8 -17 0 -4 -6 0
-11 9 -11 25 0 14 -34 -13 -38 -12 -2 -22 -7 -22 -12 0 -4 10 -6 23 -4 12 2
16 2 9 -2 -6 -3 -12 -10 -12 -15 0 -6 5 -7 12 -3 6 4 8 3 5 -3 -4 -6 4 -20 18
-33 13 -12 29 -35 35 -51 7 -17 17 -26 24 -22 6 3 8 3 4 -1 -3 -4 0 -24 8 -43
25 -59 11 -46 -21 19 -52 106 -148 194 -233 213 -41 9 -59 -9 -261 -253 l-173
-209 -67 76 c-87 99 -209 245 -250 299 -18 23 -37 40 -42 36 -5 -3 -9 -207 -9
-485 l0 -479 -92 -1 c-51 0 -103 -2 -115 -5 l-23 -4 0 690 0 690 108 0 108 0
44 -58z m1038 -326 c20 -13 52 -37 71 -53 29 -25 32 -31 17 -36 -9 -4 -15 -3
-12 2 8 12 -47 58 -63 53 -8 -3 -11 0 -7 6 3 6 1 14 -5 18 -7 4 -9 3 -5 -4 3
-6 2 -13 -4 -17 -5 -3 -10 3 -10 14 0 21 -15 26 -44 15 -13 -5 -14 -9 -5 -21
9 -11 9 -17 -1 -26 -10 -9 -11 -9 -6 1 4 7 3 19 -4 27 -8 10 -6 17 12 29 28
20 21 20 66 -8z m-41 -28 c-3 -8 -6 -5 -6 6 -1 11 2 17 5 13 3 -3 4 -12 1 -19z
m186 -117 c27 -46 14 -38 -18 12 -16 23 -22 37 -14 30 8 -6 22 -25 32 -42z
m38 -67 c5 -15 8 -29 5 -31 -2 -2 -8 10 -14 26 -13 38 -5 41 9 5z m-162 -108
c1 -42 -5 -29 -12 24 -4 30 -3 38 3 25 5 -11 9 -33 9 -49z m188 12 c-3 -8 -6
-5 -6 6 -1 11 2 17 5 13 3 -3 4 -12 1 -19z m10 -85 c-2 -16 -4 -5 -4 22 0 28
2 40 4 28 2 -13 2 -35 0 -50z m-200 -85 c-3 -7 -5 -2 -5 12 0 14 2 19 5 13 2
-7 2 -19 0 -25z m200 -30 c-3 -8 -6 -5 -6 6 -1 11 2 17 5 13 3 -3 4 -12 1 -19z
m-210 -20 c-3 -8 -6 -5 -6 6 -1 11 2 17 5 13 3 -3 4 -12 1 -19z m-46 -115
c-12 -20 -14 -14 -5 12 4 9 9 14 11 11 3 -2 0 -13 -6 -23z m192 -78 c-3 -9 -8
-14 -10 -11 -3 3 -2 9 2 15 9 16 15 13 8 -4z m-804 -94 c11 -7 21 -17 21 -24
0 -8 -3 -8 -8 -2 -10 15 -94 75 -105 75 -5 0 -6 -8 -3 -17 4 -10 4 -14 -1 -10
-4 5 -8 22 -9 38 l-2 29 43 -39 c23 -21 52 -44 64 -50z m741 -4 c0 -2 -19 -21
-42 -42 l-43 -40 40 43 c36 39 45 47 45 39z m-675 -35 c-3 -3 -11 0 -18 7 -9
10 -8 11 6 5 10 -3 15 -9 12 -12z m49 -12 c13 -5 45 -10 70 -11 25 -2 43 -5
40 -8 -7 -7 -94 -7 -94 0 0 3 -12 10 -27 16 -16 6 -25 11 -21 12 4 1 18 -3 32
-9z m184 -17 c-10 -2 -28 -2 -40 0 -13 2 -5 4 17 4 22 1 32 -1 23 -4z m342
-27 c0 -2 -8 -10 -17 -17 -16 -13 -17 -12 -4 4 13 16 21 21 21 13z m-620 -62
c0 -7 -58 25 -65 36 -3 5 10 1 29 -11 20 -12 36 -23 36 -25z m50 -19 c14 -8
21 -14 15 -14 -5 0 -21 6 -35 14 -14 8 -20 14 -15 14 6 0 21 -6 35 -14z m130
-36 c16 -6 10 -7 -20 -3 -25 4 -54 10 -65 15 -24 10 48 0 85 -12z m240 11
c-34 -11 -60 -11 -35 0 11 5 29 8 40 8 16 0 15 -2 -5 -8z m-92 -17 c-10 -2
-26 -2 -35 0 -10 3 -2 5 17 5 19 0 27 -2 18 -5z"/>
<path d="M2604 6030 c-39 -16 -64 -59 -64 -111 0 -151 217 -168 237 -19 13 97
-81 168 -173 130z m101 -14 c72 -30 85 -129 24 -180 -37 -31 -102 -35 -135 -8
-64 51 -58 153 10 186 39 19 58 20 101 2z"/>
<path d="M5500 5900 l0 -440 88 0 87 0 3 202 c3 222 7 238 62 276 41 28 98 26
132 -5 42 -37 48 -72 48 -278 l0 -195 86 0 86 0 -4 238 c-3 190 -7 244 -19
272 -62 136 -243 172 -352 68 -22 -21 -41 -38 -41 -38 -1 0 -1 75 -1 167 l0
168 -87 3 -88 3 0 -441z m160 261 c0 -172 7 -194 44 -149 69 84 206 98 295 31
63 -48 70 -83 75 -342 l5 -231 -75 0 -74 0 0 195 c0 220 -7 251 -62 285 -64
39 -148 16 -185 -52 -15 -28 -18 -63 -21 -230 l-4 -198 -74 0 -74 0 0 425 0
425 75 0 75 0 0 -159z"/>
<path d="M8560 6270 l0 -70 85 0 85 0 0 70 0 70 -85 0 -85 0 0 -70z"/>
<path d="M3700 5893 l0 -438 84 3 84 3 -3 291 c-2 159 -6 292 -9 296 -3 3 -6
-126 -6 -286 l0 -292 -70 0 -70 0 0 425 0 425 99 0 98 0 78 -197 c43 -109 97
-245 119 -303 24 -58 49 -106 57 -108 10 -2 48 83 134 303 l120 305 97 0 98 0
0 -425 0 -425 -70 0 -70 0 0 284 c0 157 -4 287 -9 290 -15 10 -27 -14 -95
-194 -36 -96 -83 -220 -104 -275 l-38 -100 -60 -3 -59 -3 -109 288 c-60 158
-113 293 -118 298 -10 11 0 -18 132 -370 l87 -229 66 -1 67 0 24 65 c143 380
194 511 200 517 3 3 6 -126 6 -288 l0 -294 80 3 80 4 0 434 0 434 -107 0 -108
0 -119 -305 c-66 -168 -122 -305 -125 -305 -3 0 -60 137 -125 305 l-119 305
-109 0 -108 0 0 -437z"/>
<path d="M7733 6252 l-83 -3 0 -79 0 -80 -50 0 -50 0 0 -60 0 -60 50 0 50 0 0
-187 c0 -161 3 -194 19 -229 35 -76 106 -109 218 -102 34 2 65 7 68 10 3 3 1
34 -5 70 l-11 63 -38 -3 c-32 -3 -42 1 -60 23 -19 26 -21 39 -21 191 l0 164
64 0 64 0 4 60 3 60 -67 0 -67 0 -3 83 -3 82 -82 -3z m75 -89 l-2 -78 -3 73
-4 74 -64 -4 c-36 -2 -65 0 -65 5 0 4 32 7 70 7 l70 0 -2 -77z m-131 -35 c-2
-18 -4 -6 -4 27 0 33 2 48 4 33 2 -15 2 -42 0 -60z m-100 -95 c-3 -10 -5 -2
-5 17 0 19 2 27 5 18 2 -10 2 -26 0 -35z m353 -10 c-10 -16 -11 -15 -6 7 3 14
6 32 7 40 1 8 4 5 6 -7 2 -12 -1 -30 -7 -40z m0 -33 c0 -5 -2 -10 -4 -10 -3 0
-8 5 -11 10 -3 6 -1 10 4 10 6 0 11 -4 11 -10z m-123 -277 c-1 -49 -3 -9 -3
87 0 96 2 136 3 88 2 -49 2 -127 0 -175z m-130 55 c-3 -7 -5 -2 -5 12 0 14 2
19 5 13 2 -7 2 -19 0 -25z m0 -75 c-3 -10 -5 -2 -5 17 0 19 2 27 5 18 2 -10 2
-26 0 -35z m0 -105 c-2 -13 -4 -5 -4 17 -1 22 1 32 4 23 2 -10 2 -28 0 -40z
m158 12 c10 -11 16 -20 13 -20 -3 0 -13 9 -23 20 -10 11 -16 20 -13 20 3 0 13
-9 23 -20z m102 -76 l10 -54 -26 1 c-17 1 -20 3 -8 6 19 5 20 14 11 62 -4 18
-12 30 -18 28 -6 -2 -20 -1 -31 3 -15 6 -11 8 16 8 36 0 36 0 46 -54z m-227
-5 c0 -7 67 -34 105 -42 14 -3 12 -5 -8 -6 -48 -2 -127 50 -126 84 0 6 6 1 14
-9 8 -11 15 -23 15 -27z"/>
<path d="M8223 6252 l-83 -3 0 -79 0 -80 -50 0 -50 0 0 -60 0 -60 55 0 56 0
-3 -197 c-2 -170 0 -202 15 -230 21 -39 57 -68 104 -84 34 -11 166 -9 178 3 3
3 1 34 -5 70 l-11 63 -39 -3 c-29 -3 -43 1 -59 17 -20 20 -21 32 -21 191 l0
170 59 0 c58 0 59 1 65 31 3 17 6 44 6 60 0 29 0 29 -65 29 l-64 0 -3 83 -3
82 -82 -3z m-56 -44 c-3 -7 -5 -2 -5 12 0 14 2 19 5 13 2 -7 2 -19 0 -25z m66
25 c-7 -2 -21 -2 -30 0 -10 3 -4 5 12 5 17 0 24 -2 18 -5z m64 -15 c-3 -8 -6
-5 -6 6 -1 11 2 17 5 13 3 -3 4 -12 1 -19z m-130 -100 c-2 -13 -4 -3 -4 22 0
25 2 35 4 23 2 -13 2 -33 0 -45z m130 10 c-3 -8 -6 -5 -6 6 -1 11 2 17 5 13 3
-3 4 -12 1 -19z m-217 -52 c0 -3 -4 -8 -10 -11 -5 -3 -10 -1 -10 4 0 6 5 11
10 11 6 0 10 -2 10 -4z m217 -138 c-3 -8 -6 -5 -6 6 -1 11 2 17 5 13 3 -3 4
-12 1 -19z m-130 -265 c-1 -54 -3 -12 -3 92 0 105 2 149 3 98 2 -51 2 -136 0
-190z m130 210 c-3 -10 -5 -4 -5 12 0 17 2 24 5 18 2 -7 2 -21 0 -30z m0 -195
c-2 -35 -3 -9 -3 57 0 66 1 94 3 63 2 -32 2 -86 0 -120z m80 -114 c-3 -3 -12
-4 -19 -1 -8 3 -5 6 6 6 11 1 17 -2 13 -5z m42 -16 c0 -16 -2 -18 -6 -8 -3 8
-11 18 -17 22 -7 5 -4 8 7 8 11 0 17 -7 16 -22z m-209 -43 c13 -14 21 -25 18
-25 -2 0 -15 11 -28 25 -13 14 -21 25 -18 25 2 0 15 -11 28 -25z m217 -17 c-3
-8 -6 -5 -6 6 -1 11 2 17 5 13 3 -3 4 -12 1 -19z m-130 -24 c-3 -3 -12 -4 -19
-1 -8 3 -5 6 6 6 11 1 17 -2 13 -5z m136 -1 c-7 -2 -19 -2 -25 0 -7 3 -2 5 12
5 14 0 19 -2 13 -5z m-66 -9 c-3 -3 -12 -4 -19 -1 -8 3 -5 6 6 6 11 1 17 -2
13 -5z"/>
<path d="M4853 6092 l-83 -3 0 -227 c0 -237 5 -273 42 -329 80 -118 304 -105
370 22 6 11 -5 4 -23 -16 -54 -57 -94 -74 -175 -73 -61 0 -78 4 -114 28 -27
18 -49 43 -63 74 -20 43 -22 66 -25 280 l-3 232 75 0 76 0 0 -209 c0 -200 1
-209 23 -242 42 -63 143 -72 194 -17 42 47 45 63 44 269 l0 199 74 0 75 0 0
-305 0 -305 -69 0 -70 0 -4 43 -4 42 -1 -47 -2 -48 80 0 80 0 0 315 0 315 -85
0 -85 0 0 -200 c0 -158 -3 -207 -15 -230 -39 -75 -127 -94 -187 -41 l-33 29
-5 224 -5 223 -82 -3z"/>
<path d="M7066 6084 c-70 -22 -146 -101 -170 -176 -22 -72 -22 -203 0 -277 21
-73 91 -144 165 -165 156 -47 332 3 380 107 33 73 30 77 -60 77 -63 0 -80 -3
-85 -16 -9 -24 -7 -29 6 -16 7 7 30 11 53 10 l40 -1 -40 -4 c-26 -3 -46 -12
-58 -26 -13 -17 -16 -18 -11 -4 6 17 4 17 -27 -2 -46 -28 -117 -28 -153 0 -32
25 -52 62 -61 112 l-7 37 217 0 218 0 -6 73 c-12 135 -56 215 -142 257 -61 29
-190 36 -259 14z m121 0 c-3 -3 -12 -4 -19 -1 -8 3 -5 6 6 6 11 1 17 -2 13 -5z
m-95 -19 c-24 -7 -61 -26 -83 -41 -42 -29 -69 -64 -49 -64 6 0 8 -5 4 -12 -6
-9 -9 -9 -12 0 -2 7 -8 10 -13 6 -5 -3 -4 -14 2 -26 10 -18 9 -20 -5 -15 -9 4
-16 2 -16 -4 0 -5 10 -14 23 -19 15 -6 17 -9 5 -9 -9 -1 -18 -4 -21 -8 -2 -5
-2 -2 -1 5 2 6 -1 12 -5 12 -5 0 -11 -18 -13 -40 -2 -22 0 -40 3 -40 8 0 6
-16 -6 -43 -10 -25 1 -98 17 -108 9 -6 10 -9 1 -9 -9 0 -10 -7 -3 -26 6 -14 6
-23 1 -19 -14 8 -31 99 -31 168 0 110 35 199 99 252 29 24 99 54 126 54 11 0
1 -6 -23 -14z m161 8 c-7 -2 -19 -2 -25 0 -7 3 -2 5 12 5 14 0 19 -2 13 -5z
m44 -9 c-3 -3 -12 -4 -19 -1 -8 3 -5 6 6 6 11 1 17 -2 13 -5z m66 -36 c18 -18
21 -23 7 -12 -14 12 -34 26 -45 32 -11 6 -14 12 -7 12 7 0 27 -15 45 -32z
m-208 -28 c-3 -5 -12 -10 -19 -10 -8 0 -24 -9 -37 -20 -28 -22 -14 -27 15 -5
30 23 108 19 140 -6 31 -25 56 -69 56 -101 0 -23 -1 -24 -107 -21 -60 1 -120
3 -134 3 -26 0 -27 2 -19 36 5 20 13 41 19 47 6 6 11 16 11 22 -1 5 -10 -1
-20 -14 -11 -13 -20 -19 -20 -15 1 18 51 65 82 79 40 17 41 17 33 5z m72 -6
c-3 -3 -12 -4 -19 -1 -8 3 -5 6 6 6 11 1 17 -2 13 -5z m93 -87 c0 -7 -6 -3
-12 8 -6 11 -16 27 -22 35 -6 9 -1 5 12 -8 12 -13 22 -28 22 -35z m125 -55 l4
-57 -8 50 c-5 28 -11 62 -15 75 -6 21 -5 22 4 7 6 -10 13 -44 15 -75z m-492 4
c3 -8 0 -17 -7 -19 -10 -4 -12 1 -9 14 6 23 9 24 16 5z m32 -4 c-3 -3 -11 0
-18 7 -9 10 -8 11 6 5 10 -3 15 -9 12 -12z m47 -7 c3 -13 1 -22 -3 -19 -9 5
-13 44 -5 44 2 0 6 -11 8 -25z m-76 -52 c-10 -10 -19 5 -10 18 6 11 8 11 12 0
2 -7 1 -15 -2 -18z m353 23 c-7 -8 -248 -10 -256 -3 -3 4 54 7 127 7 73 0 131
-2 129 -4z m151 -58 c0 -5 -96 -7 -212 -6 -166 1 -190 3 -108 7 150 8 320 7
320 -1z m-460 -7 c0 -6 -4 -12 -8 -15 -5 -3 -9 1 -9 9 0 8 4 15 9 15 4 0 8 -4
8 -9z m30 -41 c1 -33 32 -100 58 -123 11 -10 33 -22 48 -27 27 -8 27 -8 5 -9
-38 -1 -107 77 -116 131 -3 23 -9 52 -11 63 -4 16 -3 17 5 5 6 -8 11 -26 11
-40z m-60 -48 c0 -5 -7 -17 -15 -28 -14 -18 -14 -17 -4 9 12 27 19 34 19 19z
m463 -39 c-7 -2 -19 -2 -25 0 -7 3 -2 5 12 5 14 0 19 -2 13 -5z m-7 -52 c-15
-28 -74 -81 -91 -81 -4 0 10 13 32 29 22 16 45 43 53 60 7 17 15 30 17 27 2
-2 -3 -18 -11 -35z m-405 -55 c8 5 9 3 4 -6 -6 -10 -3 -12 12 -8 12 3 20 0 20
-7 0 -21 -47 1 -89 43 -21 20 -38 39 -38 43 0 4 18 -11 40 -33 23 -24 44 -37
51 -32z m235 49 c-11 -8 -27 -15 -35 -15 -9 1 -2 7 14 15 39 18 44 18 21 0z
m49 -85 c-11 -5 -31 -8 -45 -8 -23 0 -22 1 5 8 42 11 65 11 40 0z m-192 -7
c-7 -2 -21 -2 -30 0 -10 3 -4 5 12 5 17 0 24 -2 18 -5z m90 -10 c-13 -2 -35
-2 -50 0 -16 2 -5 4 22 4 28 0 40 -2 28 -4z"/>
<path d="M9144 6076 c-28 -13 -63 -39 -77 -57 l-27 -34 0 53 0 52 -80 0 -80 0
0 -317 0 -318 85 3 85 3 0 196 c0 182 2 198 22 234 20 37 68 69 102 69 9 0 32
-7 52 -15 57 -24 64 -54 64 -285 l0 -200 83 0 82 0 -5 252 c-4 210 -8 258 -22
283 -53 98 -174 132 -284 81z m163 -228 c-3 -8 -6 -5 -6 6 -1 11 2 17 5 13 3
-3 4 -12 1 -19z m0 -40 c-3 -8 -6 -5 -6 6 -1 11 2 17 5 13 3 -3 4 -12 1 -19z
m133 -233 l0 -105 -72 2 -73 2 68 3 67 4 0 99 c0 55 2 100 5 100 3 0 5 -47 5
-105z m-432 -102 c-21 -2 -57 -2 -80 0 -24 2 -7 4 37 4 44 0 63 -2 43 -4z"/>
<path d="M6180 6084 c0 -3 52 -153 115 -332 74 -208 114 -335 110 -349 -3 -13
-19 -30 -36 -39 -29 -14 -46 -14 -99 2 -13 3 -18 -11 -28 -67 -7 -39 -10 -75
-7 -80 10 -15 152 -10 193 7 43 18 85 55 114 103 12 18 78 196 148 395 l126
361 -84 3 c-47 2 -86 1 -88 -1 -2 -2 -35 -111 -73 -243 -58 -199 -67 -241 -56
-250 11 -8 12 -13 2 -23 -9 -10 -8 -11 6 -6 20 8 21 17 6 32 -8 8 -8 25 2 62
11 44 15 49 28 38 14 -10 14 -10 3 5 -11 14 -9 33 15 116 24 89 29 99 45 91
11 -6 15 -15 11 -26 -6 -15 -5 -16 9 -3 11 11 13 19 6 28 -8 9 -6 12 5 12 8 0
17 -5 19 -12 4 -12 38 -21 37 -10 -4 28 3 41 19 35 14 -5 13 -3 -3 10 -18 15
-18 16 -2 17 10 0 20 -6 23 -13 3 -8 -16 -72 -41 -143 -25 -71 -56 -157 -68
-191 -21 -59 -23 -61 -36 -41 -11 18 -11 20 3 15 9 -4 16 -3 16 2 0 16 -14 20
-28 8 -13 -10 -15 -9 -8 8 4 11 4 16 0 13 -10 -10 -46 11 -38 23 4 6 10 6 19
-1 9 -8 20 -8 32 -2 10 5 24 7 31 5 6 -3 12 0 12 6 0 6 -7 11 -15 11 -8 0 -15
5 -15 11 0 6 9 8 20 4 12 -4 20 -2 20 5 0 6 -3 9 -7 7 -5 -3 -14 2 -21 9 -12
13 -10 14 14 8 19 -5 25 -4 20 5 -4 6 -12 9 -17 6 -5 -4 -9 1 -9 10 0 11 -9 7
-30 -15 -33 -34 -36 -41 -17 -38 17 4 15 -24 -2 -30 -9 -3 -11 0 -6 8 5 8 4
11 -3 6 -6 -3 -12 2 -15 11 -3 15 -6 14 -14 -7 -12 -28 1 -65 18 -54 8 4 8 0
0 -13 -7 -14 -7 -23 1 -31 9 -9 2 -12 -27 -12 -34 -1 -37 -2 -21 -11 14 -9 16
-13 5 -20 -8 -4 -19 -3 -27 4 -12 9 -14 8 -11 -7 5 -27 36 -28 54 -3 14 21 15
21 16 2 0 -11 2 -28 4 -37 2 -10 -1 -20 -5 -23 -5 -3 -7 4 -5 15 2 12 -1 20
-10 20 -8 0 -11 -8 -8 -22 4 -20 3 -21 -7 -5 -6 9 -17 17 -25 17 -9 0 -12 -6
-9 -17 5 -14 4 -15 -4 -4 -6 8 -8 20 -5 27 2 6 -2 15 -9 20 -7 4 -10 4 -6 -1
11 -12 -11 -35 -28 -28 -16 6 -20 -12 -4 -22 5 -3 6 -13 3 -23 -6 -14 -4 -15
8 -5 13 10 16 10 16 -2 0 -8 -3 -13 -5 -10 -3 3 -12 -1 -21 -7 -9 -7 -13 -9
-9 -4 3 4 -3 34 -14 67 -17 51 -18 62 -7 77 12 15 12 16 -2 4 -14 -11 -21 1
-58 105 -42 122 -47 138 -33 129 4 -2 8 5 8 16 0 18 -2 18 -10 5 -8 -13 -22
15 -61 126 l-51 142 74 3 c41 2 77 1 79 -2 3 -2 2 -15 -2 -27 -7 -20 -8 -20
-17 -5 -5 9 -13 14 -19 11 -5 -4 -3 -13 6 -21 8 -9 13 -20 10 -25 -4 -5 -4 -9
-1 -9 3 0 11 11 19 25 12 24 15 18 50 -112 20 -76 35 -149 32 -163 -5 -21 -4
-22 3 -5 8 18 10 17 16 -12 4 -18 4 -38 0 -45 -4 -7 -3 -9 1 -5 11 9 36 -70
28 -89 -3 -10 0 -12 10 -8 12 4 13 12 6 37 -21 70 -129 456 -129 462 0 3 -40
5 -90 5 -49 0 -90 -3 -90 -6z m604 -51 c-9 -27 -18 -55 -21 -64 -4 -15 -8 -15
-30 -4 -14 8 -30 20 -34 27 -7 10 -11 10 -21 0 -21 -21 -29 -13 -12 13 9 14
23 25 32 25 8 0 13 3 9 6 -3 4 -17 4 -31 0 -18 -4 -24 -11 -20 -24 5 -14 4
-15 -5 -2 -8 11 -10 6 -5 -24 4 -30 3 -36 -8 -30 -10 6 -10 4 1 -9 11 -14 11
-18 -3 -23 -29 -11 -30 4 -6 81 l24 75 72 0 73 0 -15 -47z m-87 -69 c3 -8 1
-25 -5 -37 -9 -19 -11 -19 -11 -4 -1 10 -5 15 -11 12 -11 -7 -13 6 -4 29 8 20
23 21 31 0z m-87 -274 c0 -5 -4 -10 -10 -10 -5 0 -10 5 -10 10 0 6 5 10 10 10
6 0 10 -4 10 -10z m-20 -120 c0 -5 -4 -10 -9 -10 -6 0 -13 5 -16 10 -3 6 1 10
9 10 9 0 16 -4 16 -10z m5 -82 c-30 -94 -84 -196 -114 -217 -29 -21 -29 -21
-24 -1 3 11 9 18 13 15 4 -2 15 4 25 15 10 11 14 20 9 20 -5 0 -1 5 10 11 15
9 16 13 5 20 -11 7 -10 9 4 9 9 0 17 5 17 11 0 5 -5 7 -12 3 -7 -4 -8 -3 -4 5
4 6 12 8 18 5 7 -5 9 -1 5 9 -3 10 -3 17 2 17 4 0 15 21 23 47 14 42 14 49 1
59 -13 9 -13 13 2 28 30 30 39 4 20 -56z m-85 -58 c0 -5 -8 -10 -17 -10 -15 0
-16 2 -3 10 19 12 20 12 20 0z m40 0 c0 -5 -5 -10 -11 -10 -5 0 -7 5 -4 10 3
6 8 10 11 10 2 0 4 -4 4 -10z m-75 -39 c3 -5 2 -12 -3 -15 -5 -3 -9 1 -9 9 0
17 3 19 12 6z m-64 -20 c-15 -26 -65 -45 -107 -38 -30 5 -35 3 -30 -10 4 -8 2
-21 -3 -27 -5 -6 -11 -22 -13 -35 -3 -23 0 -25 52 -29 72 -5 77 -12 9 -12 -75
0 -78 4 -65 73 l10 57 46 -6 c40 -5 50 -3 76 20 35 31 38 31 25 7z m69 -20 c0
-6 -4 -13 -10 -16 -5 -3 -10 1 -10 9 0 9 5 16 10 16 6 0 10 -4 10 -9z m-52
-113 c-16 -10 -45 -10 -51 0 -3 4 10 7 29 8 21 0 30 -3 22 -8z"/>
<path d="M6667 6057 c-7 -4 5 -7 25 -5 30 2 41 -2 54 -20 8 -12 10 -22 5 -22
-6 0 -11 4 -11 10 0 5 -7 7 -15 4 -8 -4 -15 -14 -14 -23 0 -10 2 -11 6 -3 8
19 23 14 23 -9 0 -11 5 -17 10 -14 6 4 8 10 5 15 -3 5 0 12 6 15 5 4 8 13 5
21 -3 8 -2 14 3 14 4 0 8 6 8 14 0 10 -14 13 -50 12 -27 0 -54 -5 -60 -9z"/>
<path d="M6575 5530 c-3 -5 1 -10 10 -10 9 0 13 5 10 10 -3 6 -8 10 -10 10 -2
0 -7 -4 -10 -10z"/>
<path d="M8560 5775 l0 -315 88 0 87 0 -3 315 -3 315 -84 0 -85 0 0 -315z
m157 43 c-3 -8 -6 -5 -6 6 -1 11 2 17 5 13 3 -3 4 -12 1 -19z m0 -140 c-3 -8
-6 -5 -6 6 -1 11 2 17 5 13 3 -3 4 -12 1 -19z m0 -60 c-3 -8 -6 -5 -6 6 -1 11
2 17 5 13 3 -3 4 -12 1 -19z m0 -85 c-3 -10 -5 -4 -5 12 0 17 2 24 5 18 2 -7
2 -21 0 -30z m3 -43 c0 -18 -6 -20 -77 -18 l-78 2 73 3 c55 3 72 7 72 18 0 8
2 15 5 15 3 0 5 -9 5 -20z"/>
<path d="M6334 5985 c-4 -8 -11 -12 -17 -8 -6 3 -7 1 -3 -5 11 -18 26 -14 26
6 0 14 2 15 9 2 6 -8 7 -18 5 -22 -3 -4 0 -8 6 -8 7 0 9 7 6 16 -3 9 -6 20 -6
25 0 15 -20 10 -26 -6z"/>
<path d="M6678 5873 c7 -3 16 -2 19 1 4 3 -2 6 -13 5 -11 0 -14 -3 -6 -6z"/>
<path d="M6600 5861 c0 -6 5 -13 10 -16 6 -3 10 1 10 9 0 9 -4 16 -10 16 -5 0
-10 -4 -10 -9z"/>
<path d="M6643 5843 c4 -3 7 -13 7 -24 0 -10 4 -19 10 -19 5 0 7 -6 4 -14 -3
-8 -1 -17 5 -21 7 -3 8 0 5 9 -4 9 -1 16 6 16 9 0 9 4 -1 17 -12 15 -12 16 4
10 9 -3 17 -3 17 2 0 5 -8 11 -17 14 -10 2 -25 7 -33 9 -8 3 -12 3 -7 1z"/>
<path d="M6626 5803 c-6 -14 -5 -15 5 -6 7 7 10 15 7 18 -3 3 -9 -2 -12 -12z"/>
<path d="M6596 5745 c-3 -8 -1 -15 4 -15 6 0 10 7 10 15 0 8 -2 15 -4 15 -2 0
-6 -7 -10 -15z"/>
<path d="M6417 5700 c3 -11 7 -20 9 -20 2 0 4 9 4 20 0 11 -4 20 -9 20 -5 0
-7 -9 -4 -20z"/>
<path d="M6433 5655 c-3 -9 -3 -19 1 -22 3 -4 6 -1 6 6 0 7 4 9 10 6 6 -3 7 1
4 9 -8 20 -13 20 -21 1z"/>
<path d="M6360 5646 c0 -2 7 -7 16 -10 8 -3 12 -2 9 4 -6 10 -25 14 -25 6z"/>
<path d="M6447 5623 c-4 -3 -7 -19 -7 -35 0 -15 -4 -28 -8 -28 -4 0 -8 -9 -9
-20 -1 -11 2 -18 8 -15 5 4 9 14 9 23 0 12 3 13 12 4 7 -7 17 -12 23 -12 5 0
2 5 -8 11 -15 9 -17 18 -12 45 6 34 4 40 -8 27z"/>
<path d="M6615 5620 c3 -5 8 -10 11 -10 2 0 4 5 4 10 0 6 -5 10 -11 10 -5 0
-7 -4 -4 -10z"/>
<path d="M6391 5613 c-1 -6 -3 -18 -6 -26 -4 -8 0 -14 9 -14 8 0 13 4 10 9 -3
4 0 8 5 8 6 0 11 5 11 11 0 5 -4 8 -9 5 -5 -4 -12 0 -14 6 -4 9 -6 9 -6 1z"/>
<path d="M6480 5570 c-9 -6 -10 -10 -3 -10 6 0 15 5 18 10 8 12 4 12 -15 0z"/>
<path d="M6400 5524 c0 -17 17 -36 24 -26 3 5 -1 15 -9 22 -8 7 -15 9 -15 4z"/>
<path d="M6445 5522 c-12 -8 -13 -27 -4 -37 4 -3 9 6 11 20 3 14 5 25 4 25 0
0 -6 -4 -11 -8z"/>
<path d="M3865 5305 c-27 -26 -31 -57 -15 -99 21 -57 117 -60 145 -6 21 40 19
72 -6 104 -28 36 -89 37 -124 1z m115 -12 c40 -51 9 -117 -55 -117 -45 0 -69
24 -69 68 0 73 80 104 124 49z"/>
<path d="M4182 5323 c-7 -3 -19 -18 -28 -35 -44 -85 64 -171 131 -103 34 33
34 93 2 123 -22 21 -73 28 -105 15z m98 -23 c25 -25 26 -71 1 -101 -24 -30
-87 -32 -107 -4 -19 26 -18 84 3 107 22 24 77 24 103 -2z"/>
<path d="M3995 5089 c-88 -14 -174 -66 -227 -137 -57 -75 -78 -138 -85 -254
-10 -160 29 -279 120 -365 64 -61 143 -93 248 -100 228 -16 385 110 421 341
15 95 0 219 -36 301 -50 112 -159 194 -287 215 -72 11 -83 11 -154 -1z m267
-48 c134 -64 203 -198 201 -392 -1 -196 -85 -331 -235 -382 -70 -24 -165 -31
-233 -17 -163 33 -256 126 -291 289 -50 236 44 456 224 520 47 17 76 20 162
18 94 -3 112 -7 172 -36z"/>
<path d="M3975 4932 c-93 -51 -143 -163 -133 -302 13 -176 136 -290 280 -259
137 30 219 188 188 360 -14 75 -31 112 -74 157 -72 77 -170 94 -261 44z m217
-18 c23 -16 54 -53 72 -84 30 -53 31 -60 31 -170 0 -93 -4 -122 -19 -150 -44
-83 -114 -130 -195 -130 -65 0 -92 11 -145 60 -59 54 -80 116 -80 230 0 94 22
160 72 214 68 73 185 86 264 30z"/>
<path d="M6205 4865 c-35 -9 -58 -23 -80 -49 l-30 -36 3 45 4 45 -86 0 -86 0
0 -315 0 -315 85 0 85 0 0 190 c0 224 6 247 71 280 34 18 55 21 104 18 l62 -4
-8 36 c-5 19 -9 51 -9 71 0 29 -4 38 -22 43 -30 8 -34 7 -93 -9z m-122 -46
c-2 -16 0 -36 5 -45 10 -18 11 -17 53 38 19 27 74 49 114 47 11 -1 2 -5 -20
-10 -53 -12 -86 -30 -78 -42 3 -6 1 -7 -5 -3 -7 4 -12 1 -13 -6 0 -7 -2 -27
-5 -45 -4 -31 -3 -32 26 -21 17 5 30 14 30 18 0 4 9 6 21 3 18 -5 16 -8 -16
-18 -102 -36 -115 -82 -115 -432 l0 -53 -70 0 -70 0 0 303 0 302 74 -3 74 -4
-5 -29z m223 16 c3 -14 4 -39 2 -55 -3 -17 0 -30 5 -30 6 0 8 -2 6 -4 -2 -2
-22 0 -44 4 -39 7 -39 8 -7 9 30 1 32 3 32 39 0 21 -5 43 -12 50 -9 9 -9 12 0
12 6 0 14 -11 18 -25z"/>
<path d="M6036 4824 c-8 -21 -8 -21 12 -29 13 -5 14 -3 5 6 -6 6 -9 18 -6 25
3 8 3 14 0 14 -3 0 -8 -7 -11 -16z"/>
<path d="M6098 4727 c5 -20 4 -20 -11 -8 -9 7 -17 12 -18 10 -6 -31 -6 -38 1
-34 9 6 21 -20 13 -29 -4 -3 -13 0 -21 7 -10 8 -13 8 -9 1 7 -12 -20 -29 -38
-25 -5 2 -6 -1 -2 -6 5 -4 13 -8 17 -8 5 0 17 -9 26 -20 15 -19 15 -18 0 8
-14 23 -14 27 -2 27 8 0 16 -7 18 -16 2 -11 9 -4 21 20 9 21 13 35 7 31 -5 -3
-10 -2 -10 3 0 5 10 13 23 17 13 4 17 8 9 12 -6 2 -10 8 -7 13 3 4 -1 10 -9
13 -10 4 -12 0 -8 -16z"/>
<path d="M6010 4669 c0 -5 5 -7 10 -4 6 3 10 8 10 11 0 2 -4 4 -10 4 -5 0 -10
-5 -10 -11z"/>
<path d="M6000 4616 c0 -2 7 -7 16 -10 8 -3 12 -2 9 4 -6 10 -25 14 -25 6z"/>
<path d="M6045 4570 c-3 -5 -1 -10 4 -10 6 0 11 5 11 10 0 6 -2 10 -4 10 -3 0
-8 -4 -11 -10z"/>
<path d="M6030 4506 c0 -3 9 -10 20 -16 11 -6 20 -8 20 -6 0 3 -9 10 -20 16
-11 6 -20 8 -20 6z"/>
<path d="M6026 4363 c-4 -9 -4 -14 0 -10 4 4 14 1 23 -6 14 -11 15 -10 1 8 -8
11 -15 21 -16 23 -1 2 -5 -5 -8 -15z"/>
<path d="M4600 4803 l0 -68 145 0 c80 0 145 -1 145 -3 0 -3 -127 -170 -264
-347 -27 -35 -31 -46 -28 -96 l3 -55 269 0 270 1 0 67 0 68 -159 2 -159 3 148
195 c147 193 149 196 149 248 l1 52 -260 0 -260 0 0 -67z m510 14 c0 -39 -11
-57 -150 -241 -82 -109 -150 -203 -150 -207 0 -5 69 -9 154 -9 l154 0 6 -31
c3 -17 6 -42 6 -55 l0 -24 -260 0 -260 0 0 51 c0 45 5 57 39 98 21 25 54 66
73 91 19 25 67 87 106 139 40 52 71 99 69 105 -2 7 -57 13 -143 16 l-139 5 -1
53 -2 52 249 0 249 0 0 -43z"/>
<path d="M5374 4840 c-98 -50 -140 -123 -151 -260 -16 -210 85 -337 277 -348
140 -8 242 36 281 121 33 73 30 77 -60 77 -72 0 -80 -2 -86 -21 -10 -30 -64
-59 -110 -59 -73 0 -124 48 -139 130 l-6 35 216 -3 217 -3 -6 78 c-10 139 -53
218 -141 259 -42 20 -67 24 -142 24 -81 0 -97 -3 -150 -30z m253 8 c96 -24
152 -109 169 -258 l7 -60 -214 -2 -214 -3 1 -35 c2 -88 64 -150 149 -150 52 0
110 28 120 59 4 15 17 18 76 18 67 1 69 0 63 -21 -33 -109 -108 -151 -264
-151 -82 0 -102 4 -145 26 -58 29 -109 91 -126 152 -19 65 -16 203 5 266 23
67 85 132 147 154 53 19 163 21 226 5z"/>
<path d="M5450 4752 c-37 -20 -70 -73 -73 -119 l-2 -28 125 -3 c162 -4 173 -1
165 41 -23 108 -123 158 -215 109z m131 -7 c36 -19 69 -70 69 -107 l0 -28
-130 0 -130 0 0 28 c0 87 109 149 191 107z"/>
</g>
</svg>
